<?xml version="1.0" standalone="no"?>
<!DOCTYPE svg PUBLIC "-//W3C//DTD SVG 20010904//EN"
 "http://www.w3.org/TR/2001/REC-SVG-20010904/DTD/svg10.dtd">
<svg version="1.0" xmlns="http://www.w3.org/2000/svg"
 width="3000.000000pt" height="3000.000000pt" viewBox="0 0 3000.000000 3000.000000"
 preserveAspectRatio="xMidYMid meet">
<metadata>
Created by potrace 1.14, written by Peter Selinger 2001-2017
</metadata>
<g transform="translate(0.000000,3000.000000) scale(0.100000,-0.100000)"
fill="#000000" stroke="none">
<path d="M16348 29374 c-2 -1 -43 -5 -93 -8 -49 -4 -108 -9 -130 -11 -73 -8
-149 -15 -215 -20 -199 -16 -364 -31 -450 -40 -25 -3 -76 -7 -115 -10 -38 -3
-90 -7 -115 -10 -25 -2 -81 -7 -125 -11 -44 -3 -93 -8 -110 -10 -16 -1 -66 -6
-110 -9 -44 -4 -96 -8 -115 -10 -19 -2 -75 -7 -125 -10 -49 -4 -96 -8 -105
-10 -9 -2 -57 -6 -106 -10 -49 -4 -105 -8 -124 -10 -19 -2 -69 -7 -110 -10
-41 -3 -91 -7 -110 -10 -19 -3 -71 -7 -115 -10 -44 -3 -89 -7 -100 -9 -11 -3
-32 -5 -46 -5 -26 -1 -29 -6 -74 -114 -9 -21 -28 -66 -44 -100 -16 -34 -54
-120 -86 -192 -31 -71 -68 -155 -82 -185 -14 -30 -61 -136 -105 -235 -44 -99
-93 -208 -109 -243 -16 -35 -29 -65 -29 -67 0 -2 -15 -36 -34 -77 -19 -40 -60
-131 -91 -203 -31 -71 -72 -163 -91 -203 -19 -41 -34 -76 -34 -78 0 -2 -13
-32 -29 -66 -57 -126 -74 -164 -235 -526 -90 -202 -175 -392 -189 -422 -67
-148 -66 -145 -48 -168 12 -15 25 -20 51 -18 19 2 73 7 120 11 47 4 101 8 120
10 19 2 72 7 117 10 46 3 98 8 115 10 18 3 69 7 113 10 44 3 100 8 125 11 25
3 65 7 90 9 167 14 199 17 230 20 19 3 73 7 120 10 47 3 103 8 125 11 22 3 65
7 95 9 64 5 164 13 235 20 28 2 79 7 115 10 80 7 161 14 220 19 25 3 79 7 120
11 41 3 91 8 110 9 19 2 73 7 120 11 47 4 99 9 115 10 17 2 45 3 63 4 35 1 37
5 169 296 25 55 50 104 54 109 5 6 9 18 9 28 0 10 5 18 10 18 6 0 10 6 10 14
0 7 20 54 45 105 25 50 45 93 45 95 0 2 24 55 53 117 30 63 63 134 74 159 12
25 43 92 70 150 27 58 58 123 68 145 9 22 35 76 57 120 22 44 41 82 41 85 1 7
54 122 177 385 52 111 74 159 189 407 49 108 95 205 100 215 6 10 24 47 40 83
16 36 48 106 71 155 84 181 81 172 69 199 -9 18 -19 24 -40 24 -16 -1 -30 -2
-31 -4z"/>
<path d="M21025 27724 c-33 -24 -88 -68 -99 -79 -6 -6 -31 -26 -56 -44 -25
-19 -49 -39 -55 -45 -5 -6 -30 -27 -55 -46 -25 -19 -54 -42 -65 -52 -11 -9
-117 -95 -235 -190 -118 -94 -249 -199 -290 -232 -41 -34 -82 -66 -90 -73 -71
-57 -159 -128 -175 -142 -11 -9 -76 -61 -145 -115 -69 -55 -134 -108 -145
-117 -11 -10 -69 -58 -130 -106 -421 -338 -621 -499 -625 -503 -3 -3 -117 -95
-255 -205 -137 -110 -252 -203 -255 -206 -3 -3 -41 -34 -85 -69 -44 -34 -82
-65 -85 -69 -3 -3 -21 -18 -40 -32 -19 -15 -46 -36 -59 -48 -13 -11 -28 -21
-32 -21 -5 0 -7 -10 -5 -22 3 -13 5 -28 5 -34 1 -8 67 -31 111 -39 7 -1 82
-25 100 -32 8 -3 22 -8 30 -9 8 -2 215 -65 460 -139 245 -75 453 -137 463
-140 10 -2 64 -18 120 -35 118 -37 119 -37 297 -91 74 -22 164 -49 200 -61 36
-11 72 -22 80 -23 8 -2 15 -4 15 -5 0 -1 7 -3 16 -5 17 -3 144 -41 189 -55 14
-5 66 -21 115 -35 50 -14 107 -32 127 -39 32 -12 39 -12 60 4 46 36 228 177
318 245 51 39 100 77 110 85 10 8 107 83 215 165 108 83 263 201 344 263 80
62 175 135 211 162 36 27 124 95 195 150 160 124 261 201 283 217 28 21 95 72
131 101 19 15 107 82 195 150 89 67 169 129 179 137 9 8 22 15 27 15 6 0 10 3
10 8 0 4 30 29 67 57 37 27 75 56 83 63 8 8 101 79 205 158 105 80 197 150
205 157 8 7 62 48 120 92 58 43 110 84 117 90 19 15 34 28 76 59 27 21 37 35
34 52 -4 34 4 31 -162 74 -16 4 -86 25 -155 45 -69 20 -132 38 -140 40 -8 2
-116 33 -240 70 -124 36 -235 68 -248 71 -13 2 -42 11 -65 18 -23 7 -76 23
-117 35 -126 36 -323 93 -355 101 -16 5 -61 18 -100 29 -38 12 -77 23 -85 25
-8 2 -118 34 -245 71 -126 36 -237 68 -245 70 -8 2 -62 18 -120 35 -58 17
-115 33 -127 36 -12 2 -34 9 -48 14 -36 14 -56 12 -80 -6z"/>
<path d="M14940 25310 c-18 -5 -39 -15 -45 -23 -5 -8 -16 -23 -23 -34 -6 -10
-73 -103 -146 -208 -74 -104 -161 -227 -193 -273 -32 -45 -64 -90 -71 -100
-52 -70 -189 -264 -209 -297 -14 -22 -30 -45 -37 -50 -6 -6 -15 -18 -21 -27
-9 -15 -251 -358 -502 -712 -39 -56 -94 -132 -120 -171 -59 -84 -168 -237
-368 -520 -82 -115 -174 -246 -205 -289 -30 -43 -75 -107 -100 -142 -25 -35
-63 -90 -85 -121 -22 -32 -62 -89 -89 -126 l-49 -68 199 -199 c109 -109 581
-581 1047 -1049 816 -817 849 -849 880 -845 35 5 50 20 132 129 16 22 35 47
42 55 45 57 182 232 198 254 11 15 28 37 37 49 115 147 174 224 255 327 32 41
94 122 138 180 44 58 82 107 85 110 4 3 91 115 196 250 253 328 512 662 527
680 7 8 26 33 42 55 17 22 35 45 40 51 6 6 21 26 35 44 14 18 76 99 138 179
63 80 123 157 133 171 11 14 102 131 203 262 l184 236 -606 612 c-334 336
-832 838 -1107 1115 l-500 503 -35 -8z"/>
<path d="M19615 22285 c-26 -22 -112 -89 -183 -143 -12 -9 -28 -22 -35 -27 -6
-6 -30 -24 -52 -40 -22 -17 -45 -34 -52 -40 -6 -5 -24 -20 -40 -32 -15 -11
-152 -116 -303 -232 -151 -117 -288 -222 -304 -234 -47 -35 -189 -145 -212
-164 -12 -10 -34 -27 -49 -37 -14 -11 -120 -92 -235 -181 -115 -89 -221 -170
-235 -181 -15 -10 -32 -24 -39 -29 -6 -6 -40 -33 -76 -60 -36 -27 -72 -55 -80
-62 -8 -7 -87 -67 -175 -135 -88 -67 -201 -154 -251 -193 -51 -38 -155 -119
-232 -178 l-141 -109 4 -131 c2 -73 7 -211 10 -307 3 -96 8 -247 10 -335 4
-144 10 -338 20 -645 2 -58 6 -213 10 -345 4 -132 8 -253 9 -269 2 -33 32 -60
50 -45 10 9 243 187 674 517 106 81 198 152 205 157 7 6 39 31 72 55 33 25 62
47 65 50 3 4 23 19 45 36 22 16 46 35 55 41 8 7 69 54 135 105 66 50 147 112
180 138 33 25 107 82 165 126 418 321 517 396 530 407 8 7 33 26 55 42 22 16
65 49 95 73 30 23 64 50 75 58 177 135 287 219 315 242 19 16 48 37 64 47 l28
19 -6 130 c-4 72 -9 169 -11 216 -3 47 -7 137 -10 200 -3 63 -7 149 -10 190
-2 41 -6 134 -9 205 -3 72 -8 171 -11 220 -3 50 -8 135 -10 190 -12 266 -16
347 -21 425 -3 47 -7 125 -9 173 -3 71 -7 91 -22 103 -24 18 -23 18 -58 -11z"/>
<path d="M11034 19747 c-35 -20 -43 -34 -49 -93 -6 -67 -10 -102 -18 -159 -4
-22 -9 -65 -12 -95 -4 -30 -8 -66 -10 -80 -4 -31 -13 -99 -20 -165 -3 -27 -8
-61 -10 -75 -2 -14 -7 -50 -10 -80 -3 -30 -8 -66 -10 -80 -2 -14 -7 -50 -10
-80 -3 -30 -8 -66 -10 -80 -2 -14 -7 -50 -10 -80 -3 -30 -8 -66 -10 -80 -2
-14 -7 -50 -11 -80 -7 -65 -9 -87 -19 -160 -4 -30 -8 -69 -10 -87 -2 -17 -6
-49 -9 -70 -3 -21 -8 -58 -11 -83 -3 -25 -7 -61 -10 -80 -2 -19 -7 -59 -10
-88 -4 -29 -8 -62 -10 -72 -2 -10 -6 -47 -10 -81 -3 -34 -8 -76 -11 -93 -4
-32 -12 -93 -19 -156 -2 -19 -4 -35 -5 -35 -1 0 -3 -13 -5 -30 -2 -27 -7 -67
-20 -165 -8 -66 -15 -125 -21 -170 -3 -25 -7 -63 -10 -85 -7 -53 -10 -78 -18
-152 -4 -34 -9 -72 -11 -85 -3 -13 -7 -45 -10 -73 -9 -78 -16 -138 -20 -165
-2 -14 -11 -83 -20 -155 -19 -156 -25 -202 -30 -235 -2 -14 -6 -50 -9 -80 -3
-30 -9 -73 -12 -95 -3 -22 -7 -56 -9 -75 -3 -19 -7 -52 -9 -73 -3 -25 -1 -39
7 -41 7 -2 37 -11 67 -20 30 -9 64 -18 75 -21 11 -2 45 -11 75 -20 30 -9 64
-18 75 -20 11 -3 45 -12 75 -20 30 -9 79 -23 108 -31 29 -9 61 -17 70 -19 9
-2 125 -33 257 -70 132 -36 249 -68 259 -70 25 -6 192 -52 231 -64 17 -6 68
-19 115 -31 47 -12 117 -30 155 -41 122 -36 166 -47 360 -99 105 -28 210 -57
235 -64 199 -59 208 -60 243 -41 l33 17 23 162 c13 88 25 170 26 181 2 11 8
54 14 95 6 41 13 93 16 115 3 22 7 49 9 60 2 11 7 40 10 65 4 25 9 56 11 70 3
14 7 45 10 70 3 25 7 56 10 69 2 14 9 59 15 101 6 42 12 87 15 99 2 13 7 49
11 80 3 31 8 59 10 62 2 3 6 32 10 64 3 32 8 68 10 79 6 28 12 72 18 121 3 22
10 67 15 100 6 33 13 83 16 110 3 28 10 75 15 105 5 30 12 73 15 95 4 22 8 51
10 65 3 14 7 48 10 75 3 28 10 73 14 100 5 28 9 57 9 65 0 8 2 24 5 35 3 11 8
45 12 75 4 30 9 64 11 75 3 11 9 52 14 90 6 39 12 81 15 95 2 14 7 50 10 80 4
30 8 57 10 60 1 3 6 32 10 65 3 32 8 62 10 65 1 3 6 32 9 65 4 33 9 71 11 85
8 44 36 233 51 340 3 19 7 46 9 60 2 14 7 43 10 65 3 23 7 51 10 64 2 13 7 49
11 80 3 31 8 65 10 76 3 11 7 36 9 55 3 19 8 52 11 72 5 30 2 38 -15 48 -12 6
-21 8 -21 4 0 -3 -7 -1 -15 6 -8 7 -15 10 -15 7 0 -3 -21 1 -47 9 -27 8 -55
17 -63 19 -8 2 -51 13 -95 24 -44 12 -91 25 -105 31 -14 5 -36 12 -50 14 -14
3 -56 14 -95 25 -38 10 -96 26 -129 35 -32 9 -100 28 -150 42 -50 14 -98 28
-106 29 -8 2 -15 4 -15 5 0 1 -7 3 -16 5 -21 4 -194 52 -234 64 -16 6 -66 19
-110 31 -44 11 -87 23 -95 27 -13 5 -30 10 -65 17 -5 1 -16 5 -22 9 -7 5 -13
6 -13 3 0 -2 -15 0 -32 5 -34 11 -202 58 -228 64 -8 2 -31 9 -50 15 -19 6 -44
13 -55 15 -11 3 -76 21 -145 40 -69 20 -132 38 -140 40 -18 4 -136 36 -251 68
-65 18 -91 22 -105 14z"/>
<path d="M19497 16514 c-1 -1 -78 -5 -172 -8 -183 -7 -293 -13 -395 -21 -182
-14 -306 -25 -328 -29 -9 -2 -53 -7 -97 -11 -44 -4 -87 -8 -95 -10 -8 -1 -42
-6 -75 -9 -33 -4 -67 -9 -75 -11 -8 -2 -40 -6 -70 -9 -30 -3 -66 -8 -80 -11
-23 -5 -84 -14 -125 -20 -55 -7 -119 -18 -210 -35 -55 -11 -115 -22 -132 -25
-18 -3 -61 -12 -95 -20 -35 -8 -74 -16 -88 -19 -70 -13 -234 -52 -390 -92 -96
-25 -182 -47 -190 -49 -8 -2 -15 -4 -15 -5 0 -1 -7 -3 -15 -5 -73 -16 -452
-140 -645 -211 l-121 -45 1 -439 c0 -241 -3 -436 -6 -432 -5 6 -63 182 -75
227 -1 6 -20 64 -40 130 -39 123 -52 143 -129 203 -17 13 -59 49 -94 80 -36
32 -69 56 -75 54 -55 -16 -499 -239 -678 -340 -149 -85 -369 -221 -481 -298
-43 -30 -82 -54 -87 -54 -5 0 -10 -4 -12 -8 -1 -4 -41 -34 -88 -67 -77 -54
-207 -152 -220 -165 -3 -3 -39 -31 -80 -62 -42 -32 -84 -66 -95 -76 -11 -10
-56 -49 -100 -87 -133 -116 -163 -144 -330 -310 -156 -156 -207 -211 -290
-310 -61 -73 -70 -84 -132 -166 -38 -49 -64 -74 -73 -71 -8 3 -26 9 -40 15
-14 6 -27 11 -30 12 -3 0 -32 11 -65 24 -130 50 -313 109 -319 104 -3 -4 -6
-1 -6 5 0 7 -3 11 -7 10 -8 -2 -87 18 -113 29 -8 3 -19 7 -25 9 -5 1 -75 20
-155 43 -182 50 -389 103 -460 117 -14 3 -41 9 -60 14 -19 5 -46 11 -60 14
-14 2 -70 14 -125 26 -55 12 -111 23 -125 26 -14 2 -61 11 -105 20 -69 13
-172 32 -280 50 -16 3 -41 7 -55 9 -14 2 -88 13 -165 25 -77 11 -151 23 -165
25 -68 10 -109 15 -155 21 -75 8 -105 12 -155 18 -25 3 -70 8 -100 11 -30 3
-75 8 -100 11 -64 7 -131 14 -192 18 -29 3 -84 7 -123 10 -38 4 -97 9 -130 11
-33 3 -98 8 -145 10 -47 3 -130 7 -185 11 -181 10 -307 14 -587 18 l-277 5 -3
-116 -3 -116 -56 69 c-31 38 -76 90 -100 115 l-44 46 -145 -3 c-281 -5 -646
-22 -885 -39 -33 -3 -91 -7 -128 -10 -70 -5 -141 -11 -237 -21 -30 -3 -84 -7
-120 -9 -36 -3 -78 -6 -95 -9 -16 -2 -57 -7 -90 -10 -170 -18 -241 -26 -280
-31 -84 -11 -124 -16 -165 -22 -25 -3 -54 -7 -65 -8 -95 -11 -141 -17 -145
-20 -3 -2 -30 -6 -60 -9 -30 -3 -64 -8 -75 -10 -25 -5 -85 -14 -145 -22 -24
-3 -47 -7 -50 -9 -3 -1 -32 -6 -65 -10 -77 -9 -89 -11 -155 -25 -30 -6 -68
-12 -85 -15 -68 -9 -112 -17 -145 -25 -19 -5 -53 -11 -75 -14 -22 -3 -51 -7
-65 -10 -14 -3 -37 -8 -52 -12 l-27 -5 50 -96 c28 -52 100 -185 160 -295 60
-110 109 -201 109 -203 0 -2 17 -34 38 -72 22 -37 55 -97 74 -133 19 -36 68
-125 108 -198 40 -73 69 -137 64 -141 -5 -4 -76 -36 -159 -70 -332 -138 -391
-163 -420 -176 -16 -7 -55 -23 -85 -35 -30 -12 -77 -32 -105 -44 -27 -12 -65
-28 -83 -36 -18 -7 -53 -36 -78 -64 -25 -28 -58 -60 -73 -71 l-29 -20 54 -110
c29 -60 52 -110 51 -110 -1 -1 -59 -31 -128 -65 l-126 -64 4 -65 c5 -65 4 -66
-14 -46 -10 12 -32 31 -49 43 l-32 22 -94 -48 -95 -48 48 -99 c27 -54 47 -100
44 -103 -54 -54 -271 -286 -273 -292 -2 -4 31 -74 73 -154 63 -120 73 -146 58
-147 -10 0 -27 -2 -38 -5 -22 -5 -55 -9 -130 -19 -27 -3 -57 -8 -65 -10 -8 -2
-39 -7 -68 -10 -59 -7 -102 -20 -102 -32 -1 -5 -13 -22 -28 -40 -23 -27 -45
-37 -126 -58 -53 -15 -105 -28 -114 -30 -34 -6 -415 -107 -436 -115 -21 -8
-21 -11 -20 -237 l1 -228 114 -223 c123 -240 214 -418 438 -857 79 -154 195
-381 259 -505 63 -124 161 -315 217 -425 56 -110 152 -297 213 -415 60 -118
154 -300 207 -405 153 -298 195 -382 195 -393 0 -6 4 -12 8 -14 5 -1 46 -77
92 -168 45 -91 118 -232 160 -315 43 -82 134 -260 202 -395 69 -135 169 -330
223 -435 53 -104 154 -300 222 -435 69 -135 169 -330 223 -435 53 -104 155
-302 225 -440 70 -137 168 -329 218 -425 49 -96 94 -183 99 -192 20 -42 32
-65 141 -279 64 -123 164 -319 224 -436 104 -204 167 -328 420 -823 64 -124
170 -331 236 -460 65 -129 163 -320 217 -425 54 -104 164 -320 245 -480 81
-159 152 -292 156 -293 5 -2 6 -9 2 -15 -3 -7 2 -5 13 5 18 15 507 263 684
346 47 22 128 60 180 85 143 67 241 113 390 179 74 33 139 64 144 69 6 5 16 9
23 9 7 0 45 15 85 34 111 51 128 58 343 149 374 158 926 375 1235 487 63 23
122 44 130 47 8 3 20 7 25 9 6 2 48 17 95 34 47 17 92 33 100 36 8 3 17 5 20
6 3 0 13 4 23 10 10 5 26 11 35 13 9 2 60 19 112 38 83 30 406 140 420 142 3
1 77 25 165 54 88 29 165 54 170 55 6 2 17 6 25 9 12 4 86 26 145 43 6 2 55
17 110 34 116 37 265 82 385 117 47 13 108 31 135 39 172 50 731 202 768 210
10 2 27 6 37 9 10 3 27 7 37 9 10 2 47 12 83 21 36 10 74 19 85 21 11 2 47 11
80 20 33 9 67 17 75 19 8 2 53 13 100 24 47 12 95 24 108 27 96 21 287 66 292
69 3 2 23 6 45 9 22 4 67 13 101 21 34 8 74 16 88 19 14 3 36 8 47 11 12 4 31
8 42 10 12 2 110 21 217 44 107 22 206 42 220 45 14 2 88 16 165 31 77 15 150
29 163 31 45 8 138 24 158 28 25 5 91 16 119 20 11 2 47 8 80 14 33 6 83 14
110 17 28 3 57 8 65 10 8 2 33 6 55 10 22 3 51 8 65 10 14 2 45 6 70 9 25 3
60 8 78 11 23 3 52 -5 95 -24 101 -46 263 -112 292 -117 6 -1 30 -9 55 -17 57
-19 198 -58 225 -62 11 -2 45 -8 75 -14 30 -6 66 -13 80 -16 14 -3 45 -8 70
-11 25 -3 54 -8 64 -10 98 -18 440 -24 596 -9 47 4 96 9 110 10 14 1 39 5 55
8 17 4 46 9 65 12 124 21 391 101 530 160 313 132 615 350 807 582 21 25 44
52 51 59 6 7 12 17 12 23 0 6 3 11 8 11 4 0 27 31 51 70 38 61 49 70 80 76 20
3 45 8 56 12 11 3 27 7 35 8 8 2 35 6 60 10 25 5 50 9 55 9 6 1 24 4 40 8 17
3 46 9 65 11 19 3 46 8 60 11 13 2 42 7 65 10 22 3 51 8 65 11 14 2 39 6 55 9
58 7 110 16 130 20 11 2 47 7 79 11 33 3 67 7 75 9 28 5 95 14 144 20 70 8
139 17 162 21 11 2 53 7 94 10 42 3 84 8 96 10 11 2 49 6 85 9 36 3 76 8 90
10 14 2 59 7 100 10 137 12 154 14 225 20 38 4 93 9 120 10 28 2 86 6 130 9
84 7 147 11 325 20 58 3 137 8 175 11 77 6 324 14 565 20 433 11 1239 0 1525
-20 39 -3 111 -7 160 -10 50 -2 117 -7 150 -9 52 -4 134 -10 300 -21 22 -1 74
-6 115 -10 41 -4 93 -9 115 -11 22 -1 63 -5 90 -8 28 -3 79 -8 115 -11 36 -3
81 -9 100 -11 19 -3 51 -7 70 -9 35 -3 112 -12 180 -20 185 -23 279 -36 300
-40 14 -2 45 -7 70 -10 25 -3 54 -7 65 -9 11 -2 40 -7 65 -10 25 -3 54 -8 65
-10 11 -2 42 -7 68 -10 27 -4 58 -9 70 -12 12 -2 39 -6 62 -9 22 -3 47 -8 55
-10 8 -2 31 -6 50 -9 19 -3 62 -10 95 -16 33 -6 76 -13 95 -16 19 -2 42 -7 50
-9 8 -3 32 -7 53 -10 l37 -6 0 185 c0 101 -3 186 -8 188 -10 4 -91 110 -198
258 -402 556 -693 1103 -780 1465 -5 22 -40 237 -49 300 -3 22 -8 51 -10 65
-3 14 -7 43 -10 65 -2 22 -7 58 -9 80 -12 95 -15 123 -21 180 -3 33 -7 83 -10
110 -7 75 -16 191 -20 277 l-4 77 62 -4 c34 -3 89 -8 122 -11 105 -11 135 -12
135 -5 0 4 -35 61 -78 127 -43 65 -85 130 -92 144 -7 14 -16 27 -19 30 -4 3
-22 30 -41 60 -36 59 -115 181 -266 415 -21 33 -43 68 -49 77 -14 25 -100 158
-215 336 -55 85 -100 158 -100 163 0 5 -4 9 -9 9 -5 0 -11 8 -15 18 -3 9 -18
36 -33 59 -16 24 -136 211 -268 415 -131 205 -265 413 -297 462 -32 49 -58 90
-58 92 0 1 -26 42 -58 91 -32 48 -61 93 -63 98 -3 8 -58 93 -164 255 -13 19
-141 220 -285 445 -144 226 -292 456 -329 513 -36 57 -87 136 -112 175 -25 40
-75 117 -111 172 -148 230 -254 397 -266 420 -7 14 -18 25 -24 25 -5 0 -24 6
-41 14 -35 15 -188 70 -225 81 -22 6 -22 7 -16 148 3 78 7 154 7 168 1 23 -19
57 -135 237 -10 15 -21 33 -24 39 -3 7 -37 22 -75 33 -38 12 -69 22 -69 24 0
2 11 23 24 48 24 45 23 58 -6 93 -7 8 -95 145 -133 207 -36 60 -425 662 -452
700 -18 26 -33 50 -33 52 0 5 -157 251 -180 281 -14 19 -26 20 -317 20 l-301
0 -119 169 c-65 93 -136 194 -157 225 -22 31 -118 169 -215 306 -96 138 -194
277 -217 310 -22 33 -95 137 -160 230 -66 94 -127 181 -136 195 -10 14 -30 43
-46 65 -16 22 -106 150 -200 285 -94 135 -177 252 -183 261 -6 9 -51 74 -101
145 -49 71 -96 136 -104 144 -12 12 -45 15 -170 15 -86 0 -156 -1 -157 -1z"/>
</g>
</svg>
